<svg width="146" height="30" viewBox="0 0 146 30" fill="none" xmlns="http://www.w3.org/2000/svg">
<g id="Group 2">
<g id="Group 1">
<path id="Ellipse 1" d="M26.8884 18.0419C28.8831 18.5767 30.0848 20.6809 29.0306 22.4566C27.83 24.4788 26.1484 26.2187 24.1029 27.5209C20.9699 29.5154 17.195 30.3486 13.4751 29.8666C9.75523 29.3846 6.34171 27.62 3.86492 24.8986C1.38813 22.1773 0.0153611 18.683 0.000128143 15.0611C-0.0151048 11.4391 1.32823 7.9342 3.78205 5.19353C6.23587 2.45286 9.63443 0.661576 13.3501 0.150466C17.0658 -0.360643 20.8477 0.442949 23.9973 2.41284C26.0535 3.69892 27.7496 5.42539 28.9672 7.43794C30.0363 9.20524 28.8515 11.3196 26.8607 11.8702C24.9223 12.4063 22.9542 11.1923 21.5779 9.72587C21.1074 9.22458 20.5685 8.78038 19.9715 8.40704C18.3218 7.37522 16.3409 6.95431 14.3946 7.22202C12.4484 7.48974 10.6683 8.428 9.38296 9.86354C8.09767 11.2991 7.39405 13.1349 7.40203 15.0321C7.41 16.9292 8.12905 18.7595 9.42637 20.1849C10.7237 21.6103 12.5117 22.5346 14.4601 22.7871C16.4086 23.0396 18.3858 22.6031 20.0268 21.5584C20.6197 21.181 21.1542 20.7334 21.6199 20.2294C22.9855 18.7516 24.9449 17.5208 26.8884 18.0419Z" fill="url(#paint0_linear_1059_3)"/>
<g id="Intersect" filter="url(#filter0_b_1059_3)">
<path fill-rule="evenodd" clip-rule="evenodd" d="M16.8411 7.24349C17.9483 7.416 19.0156 7.80878 19.9715 8.4067C20.5685 8.78005 21.1075 9.22425 21.5779 9.72554C22.9542 11.192 24.9223 12.406 26.8607 11.8699C28.8515 11.3193 30.0363 9.20491 28.9672 7.43761C27.7497 5.42506 26.0536 3.69858 23.9973 2.41251C20.8477 0.442617 17.0658 -0.360975 13.3501 0.150134C9.89366 0.625588 6.71161 2.20883 4.30919 4.63359C9.90169 3.97472 14.1319 5.45849 16.8411 7.24349Z" fill="url(#paint1_linear_1059_3)"/>
</g>
</g>
<g id="oncise.id">
<path d="M42.9117 29.9404C48.4741 29.9404 53.1835 25.5253 53.1835 20.2912C53.1835 15.0571 48.4741 10.6776 42.9117 10.6776C37.3494 10.6776 32.64 15.0571 32.64 20.2912C32.64 25.5253 37.3494 29.9404 42.9117 29.9404ZM42.9117 26.2374C39.7227 26.2374 37.0528 23.5314 37.0528 20.2912C37.0528 17.0867 39.7227 14.3806 42.9117 14.3806C46.0637 14.3806 48.7337 17.0867 48.7337 20.2912C48.7337 23.5314 46.0637 26.2374 42.9117 26.2374Z" fill="#F54949"/>
<path d="M67.5645 10.6776C65.0429 10.6776 62.8179 11.8526 61.6313 13.5617V11.1049H57.1073V29.5131H61.6313V17.87C61.928 15.9117 63.8933 14.3806 66.2666 14.3806C68.6398 14.3806 70.3085 16.1609 70.3085 18.6533V29.5131H74.6842V17.7988C74.6842 13.6329 71.7548 10.6776 67.5645 10.6776Z" fill="#F54949"/>
<path d="M88.8291 29.9404C91.8698 29.9404 94.4285 28.7298 96.2826 26.8427L93.2419 24.3147C92.1665 25.4897 90.5349 26.2374 88.8662 26.2374C85.7142 26.2374 83.0813 23.5314 83.0813 20.2912C83.0813 17.0867 85.7142 14.3806 88.8662 14.3806C90.4978 14.3806 92.0923 15.1284 93.1306 16.2321L96.1714 13.6685C94.3543 11.8526 91.7957 10.6776 88.9032 10.6776C83.3038 10.6776 78.5944 15.0571 78.5944 20.2912C78.5944 25.5253 83.3038 29.9404 88.8291 29.9404Z" fill="#F54949"/>
<path d="M102.138 8.32764C103.547 8.32764 104.697 7.15264 104.697 5.83522C104.697 4.51781 103.547 3.37842 102.138 3.37842C100.692 3.37842 99.5421 4.51781 99.5421 5.83522C99.5421 7.15264 100.692 8.32764 102.138 8.32764ZM99.8387 29.5131H104.363V11.1049H99.8387V29.5131Z" fill="#F54949"/>
<path d="M116.445 29.9404C120.932 29.9404 123.973 27.6616 123.973 24.1367C123.973 20.2912 120.487 19.223 117.261 18.3685C114.332 17.5496 113.331 17.1935 113.331 16.0185C113.331 14.9859 114.554 14.3806 116.149 14.3806C117.818 14.3806 119.783 14.9503 121.6 16.0541L123.491 12.8852C121.414 11.5678 118.782 10.6776 116.149 10.6776C111.884 10.6776 108.918 13.0276 108.918 16.4814C108.955 19.7571 111.588 20.8965 115.741 21.9291C117.929 22.4988 119.597 22.9617 119.597 24.3859C119.597 25.5253 118.337 26.273 116.52 26.273C114.109 26.273 111.959 25.4185 110.104 24.1367L108.065 27.1632C110.364 28.9434 113.516 29.9404 116.445 29.9404Z" fill="#F54949"/>
<path d="M136.841 26.095C134.097 26.095 132.094 24.3147 131.538 21.7867H146C146 14.9859 142.551 10.6776 136.618 10.6776C131.167 10.6776 126.866 14.7367 126.866 20.2556C126.866 25.9169 131.39 29.9404 136.878 29.9404C139.659 29.9404 142.996 28.801 144.665 27.0919L141.81 24.2435C140.734 25.3116 138.621 26.095 136.841 26.095ZM136.804 14.5231C139.511 14.5231 141.142 16.1609 141.661 18.4753H131.575C132.243 16.0541 134.282 14.5231 136.804 14.5231Z" fill="#F54949"/>
</g>
</g>
<defs>
<filter id="filter0_b_1059_3" x="0.309193" y="-4" width="33.0603" height="19.999" filterUnits="userSpaceOnUse" color-interpolation-filters="sRGB">
<feFlood flood-opacity="0" result="BackgroundImageFix"/>
<feGaussianBlur in="BackgroundImageFix" stdDeviation="2"/>
<feComposite in2="SourceAlpha" operator="in" result="effect1_backgroundBlur_1059_3"/>
<feBlend mode="normal" in="SourceGraphic" in2="effect1_backgroundBlur_1059_3" result="shape"/>
</filter>
<linearGradient id="paint0_linear_1059_3" x1="11.0924" y1="29.3182" x2="19.4575" y2="6.89083" gradientUnits="userSpaceOnUse">
<stop stop-color="#FF8C39"/>
<stop offset="0.197361" stop-color="#F54949"/>
<stop offset="0.69231" stop-color="#FD2975"/>
<stop offset="1" stop-color="#353535" stop-opacity="0.95"/>
</linearGradient>
<linearGradient id="paint1_linear_1059_3" x1="10.0903" y1="1.57" x2="31.9535" y2="14.1147" gradientUnits="userSpaceOnUse">
<stop stop-color="#FD2975"/>
<stop offset="0.6454" stop-color="#F54949"/>
<stop offset="1" stop-color="#FF8C39"/>
</linearGradient>
</defs>
</svg>
