<?xml version="1.0" encoding="UTF-8"?>
<!DOCTYPE svg PUBLIC "-//W3C//DTD SVG 1.1//EN" "http://www.w3.org/Graphics/SVG/1.1/DTD/svg11.dtd">
<!-- Creator: CorelDRAW -->
<svg xmlns="http://www.w3.org/2000/svg" xml:space="preserve" width="1.70666in" height="1.70666in" version="1.1" style="shape-rendering:geometricPrecision; text-rendering:geometricPrecision; image-rendering:optimizeQuality; fill-rule:evenodd; clip-rule:evenodd"
viewBox="0 0 1707 1707"
 xmlns:xlink="http://www.w3.org/1999/xlink">
 <defs>
  <style type="text/css">
   <![CDATA[
    .fil0 {fill:black}
   ]]>
  </style>
 </defs>
 <g id="Layer_x0020_1">
  <metadata id="CorelCorpID_0Corel-Layer"/>
  <path class="fil0" d="M853 525c-76,0 -138,-62 -138,-138 0,-77 62,-139 138,-139 77,0 139,62 139,139 0,76 -62,138 -139,138zm-134 921l0 -61c-71,-68 -60,-144 -60,-238 -16,0 -30,-9 -30,-26 0,-445 -245,-268 -245,-651 0,-259 210,-470 469,-470 259,0 470,211 470,470 0,383 -245,206 -245,651 0,17 -15,26 -31,26 0,94 12,170 -59,238l0 61 52 0c30,-99 180,-79 180,27 0,105 -150,125 -180,26 -112,0 -106,14 -106,-77 -17,7 -35,13 -54,16l0 89c99,31 79,180 -27,180 -105,0 -125,-149 -26,-180l0 -90c-19,-2 -38,-8 -54,-15 -1,21 3,54 -5,66 -3,4 -13,10 -17,11 -28,2 -57,0 -85,0 -30,99 -179,79 -179,-26 0,-106 149,-126 179,-27l53 0zm42 -95c1,1 3,2 4,4 51,46 137,38 184,-7l-192 0c1,1 3,2 4,3zm329 121c0,51 76,51 76,1 0,-50 -76,-51 -76,-1zm-511 -38c-50,0 -50,77 0,77 50,0 50,-77 0,-77zm274 143c-50,0 -50,76 0,76 50,0 50,-76 0,-76zm141 -430l-281 0 0 39 281 0 0 -39zm-312 -53l62 0 0 -285c-44,-10 -104,-45 -121,-131 -6,-33 46,-43 53,-9 16,86 87,90 95,90 15,1 26,12 26,27l0 308 112 0 0 -308c0,-15 12,-27 27,-27 8,0 79,-4 95,-90 6,-34 59,-24 52,9 -16,86 -76,121 -120,131l0 285 62 0c9,-436 245,-280 245,-624 0,-230 -187,-417 -417,-417 -229,0 -416,187 -416,417 0,344 235,188 245,624zm31 145c0,19 2,38 9,56l263 0c7,-18 9,-37 9,-56l-281 0zm185 -572c-121,0 -112,14 -121,-67 -7,-2 -14,-5 -21,-8 -63,51 -47,47 -133,-39 -23,-22 11,-51 25,-69 -3,-7 -6,-14 -9,-21 -80,-9 -67,0 -67,-122 0,-31 44,-28 67,-31 3,-7 6,-14 9,-21 -51,-63 -47,-47 39,-133 22,-23 51,11 69,25 7,-3 14,-6 21,-8 9,-81 0,-67 121,-67 32,0 29,44 32,67 7,2 14,5 21,8 63,-51 47,-47 133,39 22,22 -11,51 -26,69 4,7 7,14 9,21 81,9 67,0 67,122 0,32 -44,28 -67,31 -2,7 -5,14 -9,21 52,63 48,47 -38,133 -23,23 -51,-11 -69,-25 -7,3 -14,6 -21,8 -3,24 0,67 -32,67zm-66 -53l42 0c9,-78 7,-43 66,-77 23,-13 44,13 59,25l30 -29c-49,-62 -25,-36 -8,-102 7,-25 40,-21 60,-23l0 -43c-79,-8 -43,-6 -77,-66 -13,-22 13,-43 25,-58l-30 -30c-61,49 -35,25 -101,8 -25,-7 -21,-40 -24,-60l-42 0c-8,78 -7,43 -66,77 -22,13 -43,-13 -59,-25l-29 30c49,61 25,35 7,101 -6,25 -39,21 -59,23l0 43c78,8 43,7 77,66 13,22 -13,43 -25,59l29 29c62,-49 36,-25 102,-8 24,7 21,40 23,60zm21 -312c-46,0 -85,38 -85,85 0,46 39,84 85,84 47,0 85,-38 85,-84 0,-47 -38,-85 -85,-85z"/>
 </g>
</svg>
